<?xml version="1.0" encoding="utf-8"?>
<svg width="71" height="54" viewBox="0 0 71 54" fill="none" xmlns="http://www.w3.org/2000/svg">
    <path
        d="M48.3461 8.16046C48.0942 7.90101 47.7323 7.78435 47.3714 7.83448L34.3345 9.87758C34.1825 9.90158 34.0424 9.95528 33.9193 10.0318L23.6884 7.84642C23.3145 7.76247 22.922 7.8846 22.6539 8.16046L9.24949 21.9911C8.27924 22.9929 7.96196 24.4342 8.42314 25.7534L10.3528 31.2688C10.6962 32.25 11.2839 33.1385 12.0525 33.8385L13.923 35.5424C13.6135 36.2911 12.8865 38.399 13.4371 40.6589C14.8783 46.5734 18.5644 50.1896 25.0371 52.0398C26.3018 52.4017 27.6318 52.5195 28.8278 52.5195C30.3698 52.5195 31.6762 52.3249 32.3386 52.2055C33.375 52.9074 34.5799 53.2935 35.8204 53.2935C36.3525 53.2935 36.8889 53.226 37.4188 53.0875C44.6846 51.1623 49.4624 46.4452 51.6459 39.0806C51.9074 39.0372 52.1589 38.9259 52.3384 38.7031L58.0567 31.5774C58.1472 31.464 58.2333 31.3484 58.315 31.2306L61.7645 26.2592C62.761 24.8245 62.6018 22.8719 61.3862 21.6148L48.3461 8.16046ZM25.6509 49.8931C19.9533 48.2643 16.8549 45.2531 15.6067 40.1313C15.337 39.0248 15.5172 37.9339 15.724 37.183L30.0571 50.2395C28.7736 50.332 27.1311 50.3165 25.6509 49.8931ZM49.7023 37.7851C49.4116 38.872 49.059 39.8856 48.6573 40.8425L37.2017 30.6594C36.7406 30.2473 36.0352 30.2887 35.6264 30.752C35.2165 31.2121 35.2579 31.9186 35.7191 32.3274L47.439 42.7456C47.507 42.8062 47.5868 42.8404 47.6637 42.8814C47.0816 43.9135 46.4186 44.8545 45.6723 45.7047L33.301 34.5711C32.843 34.16 32.1377 34.1961 31.7245 34.6539C31.3123 35.1119 31.3494 35.8183 31.8073 36.2304L44.0813 47.2764C43.2421 47.9932 42.3243 48.6267 41.3228 49.1737C41.2644 49.0723 41.2015 48.972 41.1091 48.8901L29.3893 38.473C28.9281 38.062 28.2237 38.1035 27.8139 38.5656C27.404 39.0257 27.4454 39.7323 27.9066 40.1411L39.1866 50.1672C38.4443 50.457 37.667 50.7116 36.8507 50.9278C35.5218 51.2777 34.1295 50.931 33.1178 50.0076L13.556 32.1878C13.061 31.7366 12.6816 31.1642 12.4613 30.5318L10.5305 25.0164C10.3496 24.5007 10.4738 23.9359 10.8533 23.5446L23.827 10.1588L36.1606 12.7928C36.9118 12.9531 37.6008 13.3215 38.1536 13.8568L41.9912 17.5768C42.7401 18.3027 43.114 19.3134 43.0181 20.3513C42.9232 21.387 42.3705 22.3126 41.5027 22.8893L40.5509 23.5217C37.5877 20.8649 35.2219 18.7487 35.2219 18.7487C34.763 18.3388 34.0619 18.3747 33.6498 18.8316C33.2378 19.2862 33.2705 19.9883 33.7228 20.4037L39.6134 25.8058C39.7333 25.9147 39.8717 25.9943 40.0189 26.0433C42.9865 28.7046 46.3389 31.7136 48.479 33.6487C49.6434 34.69 50.1122 36.274 49.7023 37.7851ZM59.9307 24.9859L56.4802 29.9584C56.4257 30.038 56.3679 30.1142 56.3112 30.1851L51.9755 35.587C51.7324 34.2231 51.0501 32.953 49.9727 31.9883C48.0124 30.2178 45.0361 27.5435 42.268 25.0611L42.7379 24.7503C44.1727 23.7964 45.0852 22.2668 45.2422 20.5552C45.4003 18.8414 44.7821 17.1723 43.5458 15.9741L39.7071 12.2531C39.3918 11.9475 39.0396 11.6904 38.6725 11.4586L47.1457 10.1304L59.7825 23.1684C60.2578 23.6602 60.3199 24.4243 59.9307 24.9859Z"
        fill="white" />
    <path
        d="M21.5528 5.70184L16.1856 0.327102C15.9762 0.117779 15.6918 0 15.3963 0C15.3952 0 15.3952 0 15.3952 0C15.0998 0 14.8152 0.117779 14.6059 0.325986L0.327269 14.5851C-0.108904 15.0211 -0.108904 15.7276 0.326153 16.1647L5.6933 21.5396C5.90262 21.7489 6.18719 21.8666 6.48259 21.8666C6.7781 21.8666 7.06367 21.7489 7.27299 21.5406L21.5517 7.28164C21.9878 6.84558 21.9878 6.13902 21.5528 5.70184ZM6.48482 19.1716L2.69524 15.3766L15.3942 2.69507L19.1837 6.49013L6.48482 19.1716Z"
        fill="white" />
    <path
        d="M70.6728 14.5851L56.3941 0.325986C56.1848 0.117779 55.9003 0 55.6048 0C55.3094 0 55.0237 0.117779 54.8144 0.327102L49.4472 5.70184C49.0122 6.13902 49.0122 6.84558 49.4484 7.28164L63.727 21.5406C63.9363 21.7489 64.2209 21.8666 64.5163 21.8666H64.5174C64.8129 21.8666 65.0973 21.7489 65.3067 21.5396L70.6739 16.1647C71.1089 15.7276 71.1089 15.0211 70.6728 14.5851ZM64.5153 19.1716L51.8163 6.49013L55.6059 2.69507L68.3048 15.3766L64.5153 19.1716Z"
        fill="white" />
</svg>