<?xml version="1.0" encoding="utf-8"?>
<svg width="43" height="43" viewBox="0 0 43 43" fill="none" xmlns="http://www.w3.org/2000/svg">
    <path
        d="M22.7341 0L17.5473 7.72344L20.3038 8.06472C19.4486 10.8192 19.2747 12.716 19.4796 16.4864C20.7911 16.2826 21.8505 16.2099 23.2443 16.6135C22.3281 13.2456 22.424 12.0948 22.7916 8.40681L25.8176 8.61498L22.7341 0ZM43 0.202041L32.9488 2.94742L34.8888 5.32208C30.2962 8.15787 27.4375 10.4003 25.1734 16.5819C26.3979 16.568 27.7797 16.8489 29.2709 17.405C29.8022 13.3216 32.4005 10.4442 36.6267 7.44762L38.4803 9.71633L43 0.202041ZM0 0.413224L6.11078 9.78252L7.88096 7.15773C11.1789 10.1234 13.2743 14.1359 13.1967 16.9791C14.919 16.1841 15.9727 16.1081 17.81 16.6337C17.0582 13.7811 13.7679 6.69422 9.3098 4.83097L10.8468 2.45063L0 0.413224ZM25.6119 20.0383C25.1222 20.0493 24.6649 20.2591 24.0409 20.9154L23.432 21.5525L22.8001 20.9382C22.1149 20.2726 21.5742 20.0889 21.0261 20.1126C20.4781 20.1364 19.8337 20.4205 19.113 20.9954L18.5363 21.4553L17.9885 20.964C17.1629 20.2278 16.4594 20.0096 15.7855 20.0439C15.295 20.0689 14.786 20.2511 14.2782 20.5696L18.0781 27.3064C19.5116 28.1704 22.4408 28.4954 24.4552 27.4949L28.1278 20.7897C27.4312 20.5098 26.8051 20.2227 26.2639 20.1126C26.068 20.0727 25.8864 20.0435 25.7104 20.0383C25.6775 20.0374 25.6444 20.0376 25.6119 20.0383ZM17.2665 28.8319C15.5937 29.9968 14.2504 32.006 13.7302 34.9486C13.226 37.8005 14.0204 39.7268 15.426 41.0395C16.8318 42.3523 18.9417 43.0266 21.0843 42.9992C23.227 42.9718 25.3637 42.2395 26.8004 40.9024C28.2373 39.5651 29.0497 37.6638 28.5889 34.9429C28.1124 32.1311 26.8822 30.1755 25.3248 28.9919C22.6828 30.3684 19.3796 30.0758 17.2665 28.8319Z"
        fill="white" />
</svg>