<?xml version="1.0" encoding="utf-8"?>

<svg width="59" height="54" viewBox="0 0 59 54" fill="none" xmlns="http://www.w3.org/2000/svg">
    <path
        d="M49.7684 16.0328C49.6962 16.0328 49.6168 16.0183 49.5447 15.9967C49.1622 15.874 48.9601 15.4699 49.0828 15.0874C49.9055 12.5544 49.4292 9.40077 47.8055 6.65127C46.1745 3.87289 43.6199 1.92442 40.9858 1.4337C40.5962 1.36153 40.3364 0.986274 40.4085 0.589363C40.4807 0.19967 40.856 -0.0601261 41.2529 0.0120394C44.291 0.582147 47.2065 2.78319 49.0467 5.91518C50.8725 9.01829 51.3993 12.6049 50.4467 15.5276C50.3529 15.8379 50.0715 16.0328 49.7684 16.0328Z"
        fill="white" />
    <path
        d="M17.7547 54.0014C17.6608 54.0014 17.567 53.9941 17.4732 53.9725C14.2618 53.3446 11.1948 51.0137 9.26799 47.7374C7.31952 44.4322 6.77828 40.593 7.82468 37.461C8.07726 36.7033 8.89273 36.2992 9.65047 36.5517C10.4082 36.8043 10.8123 37.6198 10.5598 38.3775C9.78037 40.7229 10.2206 43.6745 11.7505 46.2724C13.266 48.8487 15.6113 50.6673 18.0217 51.1364C18.8011 51.2879 19.3134 52.0457 19.1619 52.8323C19.032 53.5251 18.433 54.0014 17.7547 54.0014Z"
        fill="white" />
    <path
        d="M17.9852 13.8242C17.9419 13.8242 17.9058 13.8242 17.8625 13.8314H17.8553C17.8192 13.8314 17.7759 13.8387 17.7398 13.8459C17.545 13.8747 17.3573 13.9397 17.1841 14.0479L6.45312 20.3624L8.06963 23.1047L18.8006 16.7902C19.0244 16.6603 19.212 16.4799 19.3419 16.2634C19.3563 16.2418 19.3635 16.2201 19.378 16.2057C19.3924 16.184 19.3996 16.1624 19.414 16.1407C19.4213 16.1263 19.4285 16.1046 19.4357 16.0902C19.4357 16.0902 19.4357 16.083 19.4429 16.083C19.4573 16.0541 19.4646 16.0325 19.479 16.0036C19.4862 15.9892 19.4934 15.9675 19.5006 15.9531C19.5151 15.9098 19.5295 15.8665 19.5439 15.816C19.6522 15.4046 19.5872 14.9789 19.378 14.6108C19.0604 14.1057 18.5336 13.8242 17.9852 13.8242Z"
        fill="white" />
    <path
        d="M19.4647 15.997C19.4719 15.9826 19.4791 15.9609 19.4863 15.9465C19.4791 15.9681 19.4719 15.9826 19.4647 15.997ZM19.3348 16.2568C19.3492 16.2351 19.3564 16.2135 19.3708 16.1991C19.3636 16.2207 19.3492 16.2351 19.3348 16.2568ZM19.4358 16.0764C19.4358 16.0764 19.4358 16.0836 19.4286 16.0836L19.4358 16.0764Z"
        fill="white" />
    <path
        d="M39.4774 37.4528C39.3692 37.8641 39.4341 38.2899 39.6434 38.6579C40.0908 39.4157 41.0651 39.6683 41.8156 39.2208L52.5466 32.9064L50.9373 30.1641L40.2063 36.4785C39.8455 36.7023 39.5857 37.0414 39.4774 37.4528Z"
        fill="white" />
    <path
        d="M58.3836 27.6313C57.7775 26.5994 56.8032 25.8705 55.6486 25.5674C54.4939 25.2643 53.2888 25.4375 52.2568 26.0437L38.7474 33.9963C37.7154 34.6025 36.9866 35.5767 36.6835 36.7314C36.5103 37.4025 36.4958 38.0953 36.633 38.7592L24.538 45.882C23.0875 46.7335 21.3844 46.9789 19.7535 46.5531C18.1225 46.1273 16.7514 45.0954 15.8998 43.6448C14.1318 40.65 15.1349 36.7747 18.1369 35.0066L41.4536 21.2735C41.5474 21.2158 41.6412 21.1509 41.7134 21.0715L42.2474 20.754C44.3619 19.5055 45.8701 17.5137 46.4836 15.1323C47.097 12.7508 46.7506 10.2755 45.5021 8.16107C42.9258 3.79506 37.2825 2.3301 32.9092 4.89919L20.872 11.9858C20.3669 11.5528 19.7607 11.2425 19.104 11.0693C17.9493 10.7735 16.7442 10.9394 15.7122 11.5456L2.21002 19.5127C1.17805 20.1189 0.44918 21.0931 0.146085 22.2478C-0.15701 23.4024 0.0161874 24.6076 0.622378 25.6396C1.22857 26.6715 2.2028 27.4004 3.35745 27.7035C3.73271 27.7973 4.10797 27.8478 4.48323 27.8478C5.26984 27.8478 6.04922 27.6385 6.74923 27.2272L20.2586 19.2746C21.2906 18.6684 22.0194 17.6941 22.3225 16.5395C22.503 15.8539 22.5102 15.1467 22.3658 14.4756L34.3814 7.39612C37.3763 5.62806 41.2516 6.63116 43.0196 9.63325C43.8712 11.0838 44.1165 12.7869 43.6907 14.4178C43.265 16.0488 42.233 17.4199 40.7825 18.2715L17.473 32.0046C17.3792 32.0623 17.2854 32.1272 17.2132 32.2066L16.6792 32.5241C12.3132 35.1005 10.8482 40.7438 13.4173 45.117C15.1276 48.0253 18.2019 49.6418 21.3555 49.6418C22.9432 49.6418 24.5452 49.2305 26.003 48.3717L38.0979 41.249C38.9134 41.949 39.9598 42.3314 41.0206 42.3314C41.7928 42.3314 42.5722 42.1294 43.2866 41.7108L56.796 33.7582C57.828 33.152 58.5568 32.1778 58.8599 31.0231C59.1558 29.8612 58.9898 28.6561 58.3836 27.6313ZM5.28427 24.7375C4.52653 25.1849 3.5523 24.9323 3.11209 24.1746C2.89559 23.8066 2.83786 23.3808 2.94611 22.9694C3.05435 22.5581 3.31415 22.2117 3.67498 21.9952L5.2121 21.0931L6.82139 23.8282L5.28427 24.7375ZM19.5297 15.8178C19.5153 15.8611 19.5009 15.9116 19.4864 15.9549C19.4792 15.9694 19.472 15.991 19.4648 16.0055C19.4576 16.0343 19.4431 16.056 19.4287 16.0848C19.4287 16.0848 19.4287 16.0921 19.4215 16.0921C19.4071 16.1281 19.3854 16.1714 19.3638 16.2075C19.3493 16.2292 19.3421 16.2508 19.3277 16.2653C19.1906 16.4818 19.0101 16.6622 18.7864 16.7921L8.06986 23.1065L6.45335 20.3643L17.1844 14.0498C17.3648 13.9487 17.5524 13.8766 17.74 13.8477C17.7761 13.8405 17.8194 13.8405 17.8555 13.8333C17.8988 13.8261 17.9421 13.8261 17.9854 13.8261C18.5266 13.8261 19.0607 14.1075 19.3565 14.6055C19.573 14.9735 19.638 15.4065 19.5297 15.8178ZM41.8217 39.2211C41.6196 39.3438 41.3959 39.4087 41.1794 39.4304C40.5804 39.4881 39.9742 39.2067 39.6495 38.6582C39.433 38.2902 39.3753 37.8644 39.4835 37.453C39.534 37.2654 39.6134 37.0994 39.7216 36.9407C39.8515 36.753 40.0175 36.5943 40.2196 36.4788L50.9362 30.1643L52.5455 32.8994L41.8217 39.2211ZM55.331 31.2685L53.7939 32.1705L52.1846 29.4355L53.7218 28.5334C53.9671 28.3891 54.2486 28.3097 54.5228 28.3097C54.6599 28.3097 54.7898 28.3241 54.9269 28.3602C55.3383 28.4684 55.6847 28.7282 55.9012 29.0891C56.3414 29.8468 56.0888 30.821 55.331 31.2685Z"
        fill="white" />
</svg>