<svg xmlns="http://www.w3.org/2000/svg"
    width="28"
    height="28"
    viewBox="0 0 28 28"
    fill="none"
    id="linkedin"
>
    <path
        d="M28 14C28 6.26801 21.732 0 14 0C6.26801 0 0 6.26801 0 14C0 21.732 6.26801 28 14 28C21.732 28 28 21.732 28 14Z"
        fill="#1275B1"></path>
    <path
        d="M10.6186 7.69215C10.6186 8.6267 9.8085 9.3843 8.8093 9.3843C7.81004 9.3843 7 8.6267 7 7.69215C7 6.7576 7.81004 6 8.8093 6C9.8085 6 10.6186 6.7576 10.6186 7.69215Z"
        fill="white"></path>
    <path
        d="M7.24731 10.6289H10.3401V20.0008H7.24731V10.6289Z"
        fill="white"></path>
    <path
        d="M15.3196 10.6275H12.2268V19.9994H15.3196C15.3196 19.9994 15.3196 17.049 15.3196 15.2043C15.3196 14.097 15.6977 12.9849 17.2062 12.9849C18.911 12.9849 18.9008 14.4339 18.8928 15.5565C18.8824 17.0238 18.9072 18.5213 18.9072 19.9994H22V15.0531C21.9738 11.8948 21.1508 10.4395 18.4433 10.4395C16.8354 10.4395 15.8387 11.1695 15.3196 11.8299V10.6275Z"
        fill="white"></path>
</svg>