<?xml version="1.0" encoding="utf-8"?>

<svg width="56" height="56" viewBox="0 0 56 56" fill="none" xmlns="http://www.w3.org/2000/svg">
    <path 
        d="M55.002 18.5513C55.002 28.245 47.1446 36.1026 37.4512 36.1026C36.9922 36.1026 36.5062 36.0756 36.0471 36.0486C35.3721 27.489 28.5138 20.6304 19.9544 19.9554C19.9274 19.4964 19.9004 19.0103 19.9004 18.5513C19.9004 8.85759 27.7578 1 37.4512 1C47.1446 1 55.002 8.85759 55.002 18.5513Z"
        stroke="white" stroke-width="4" stroke-linecap="round" stroke-linejoin="round" />
    <path
        d="M36.1016 37.4497C36.1016 47.1435 28.2443 55.0011 18.5508 55.0011C8.85736 55.0011 1 47.1435 1 37.4497C1 27.756 8.85736 19.8984 18.5508 19.8984C19.0098 19.8984 19.4958 19.9254 19.9548 19.9524C28.5143 20.6275 35.3726 27.486 36.0476 36.0456C36.0746 36.5047 36.1016 36.9907 36.1016 37.4497Z"
        stroke="white" stroke-width="4" stroke-linecap="round" stroke-linejoin="round" />
    <path 
        d="M16.1728 35.0733L18.5488 30.6992L20.9248 35.0733L25.2987 37.4494L20.9248 39.8254L18.5488 44.1995L16.1728 39.8254L11.7988 37.4494L16.1728 35.0733Z"
        stroke="white" stroke-linecap="round" stroke-linejoin="round" />
</svg>