<?xml version="1.0" encoding="utf-8"?>
<svg width="53" height="53" viewBox="0 0 53 53" fill="none" xmlns="http://www.w3.org/2000/svg">
    <path
        d="M11.1732 15H22.0866L26.7638 15.7917L28.063 16.5833L28.3228 16.8472V18.6944L27.0236 19.75L23.6457 19.2222L21.8268 18.9583H11.1732L6.75591 19.75L4.41732 20.5417L5.19685 21.0694L8.05512 21.8611L11.6929 22.3889H21.0472L25.9843 21.5972L28.8425 20.5417H31.1811L32.7402 21.5972L33 21.8611V48.7778L31.9606 50.0972L28.8425 51.6806L25.7244 52.4722L22.3465 53H10.6535L5.97638 52.2083L2.85827 51.1528L0.519685 49.5694L0 48.7778V19.2222L1.29921 17.9028L2.85827 16.8472L7.27559 15.5278L11.1732 15ZM3.37795 24.5V29.25L4.67717 30.0417L7.01575 30.8333L12.7323 31.625H20.2677L25.9843 30.8333L29.1024 29.7778L29.622 29.25V24.5L25.2047 25.5556L21.3071 26.0833H11.6929L5.19685 25.0278L3.37795 24.5ZM3.37795 33.4722V38.2222L5.45669 39.2778L10.1339 40.3333L13.7717 40.5972H19.2283L22.8661 40.3333L27.5433 39.2778L29.622 38.2222V33.4722L24.9449 34.5278L20.2677 35.0556H12.7323L8.05512 34.5278L3.37795 33.4722ZM3.37795 42.4444V47.1944L5.45669 48.25L9.09449 49.0417L10.9134 49.3056L16.6299 49.5694L22.0866 49.3056L26.7638 48.5139L29.3622 47.4583L29.622 47.1944V42.4444L27.0236 42.9722L22.8661 43.7639L18.9685 44.0278H13.7717L8.5748 43.5L4.67717 42.7083L3.37795 42.4444Z"
        fill="white" />
    <path
        d="M44.963 0H49.3704L50.1481 0.777778V2.33333L49.1111 3.37037L44.4444 4.14815L41.8519 5.18519L41.5926 5.44444V6.74074L53 18.1481V20.4815L52.2222 21H50.4074L39 9.59259H37.4444L36.1481 12.7037L35.6296 16.8519L34.8519 17.8889H32.7778L32 17.1111V13.2222L33.2963 9.07407L34.3333 7.25926L34.5926 4.40741L35.8889 2.85185L36.9259 2.33333H39.2593L42.8889 0.518519L44.963 0Z"
        fill="white" />
</svg>