<?xml version="1.0" encoding="utf-8"?>
<svg width="49" height="33" viewBox="0 0 49 33" fill="none" xmlns="http://www.w3.org/2000/svg">
    <path
        d="M11.7324 0H37.2676L37.9577 0.6875V12.375L41.4085 13.0625L48.3099 19.25L49 20.625V30.25L46.2394 33H28.9859L27.6056 29.5625L24.1549 28.875L21.3944 29.5625L20.7042 32.3125L20.0141 33H2.76056L0.690141 30.9375L0 29.5625V20.625L3.4507 17.1875L8.28169 12.375H11.0423V0.6875L11.7324 0ZM13.1127 2.75V17.875L22.0845 18.5625L24.1549 22L25.5352 21.3125L26.9155 18.5625L35.8873 17.875V2.75H13.1127ZM9.66197 14.4375L2.07042 21.3125V29.5625L4.14085 30.9375H19.3239V30.25H12.4225V27.5H22.0845V26.8125H12.4225V24.0625H22.7746V23.375H12.4225V20.625H21.3944V19.9375L8.28169 19.25L11.0423 15.8125V14.4375H9.66197ZM37.9577 14.4375L39.338 17.1875L41.4085 17.875L40.7183 19.25L27.6056 19.9375V20.625H36.5775V23.375H26.2254V24.0625H36.5775V26.8125H26.9155V27.5H36.5775V30.25H30.3662V30.9375H45.5493L46.9296 29.5625V21.3125L39.338 14.4375H37.9577Z"
        fill="white" />
</svg>