<?xml version="1.0" encoding="utf-8"?>
<svg width="34" height="41" viewBox="0 0 34 41" fill="none" xmlns="http://www.w3.org/2000/svg">
    <path
        d="M25 28H14C12.5999 28 11.8998 28 11.365 27.7275C10.8946 27.4879 10.5122 27.1054 10.2725 26.635C10 26.1001 10 25.4001 10 24V13M12.5 23L15.8334 19.6666L19.1666 23L24.1666 18M24.1666 18V21.3334M24.1666 18H20.8334"
        stroke="white" stroke-width="1.5" stroke-linecap="round" stroke-linejoin="round" />
    <path fill-rule="evenodd" clip-rule="evenodd"
        d="M16.9941 39.1173C26.68 39.1173 33.4752 31.1995 32.974 23.3046C32.4728 15.3983 25.3745 7.74703 16.9941 1C8.61393 7.74703 1.52719 15.3983 1.026 23.293C0.524811 31.1995 7.32 39.1173 16.9941 39.1173Z"
        stroke="white" stroke-width="2" stroke-linecap="round" stroke-linejoin="round" />
</svg>