<?xml version="1.0" encoding="utf-8"?>

<svg width="54" height="47" viewBox="0 0 54 47" fill="none" xmlns="http://www.w3.org/2000/svg">
    <path
        d="M30.954 6.64152C29.1965 5.4444 27.9294 4.17722 27.127 3.25391C26.3247 4.17722 25.0512 5.43803 23.2873 6.64152C19.9952 8.88295 16.2255 10.1183 12.0547 10.3284V25.1588C12.0547 25.7001 12.1247 26.3305 12.2712 27.0309C12.2712 27.0309 14.086 38.4546 27.127 44.3574C27.127 44.3574 36.5958 40.7724 40.7539 30.7305C41.7218 28.5209 42.1803 26.5406 42.1803 25.1588V10.3284C38.0094 10.1183 34.2398 8.88295 30.954 6.64152Z"
        fill="white" />
    <path
        d="M27.1203 44.3574C22.0007 42.1414 18.2947 38.5564 15.8368 34.965C14.5059 34.5193 13.226 34.0417 12.0034 33.5514C12.5192 34.5193 13.0987 35.4872 13.7418 36.4169C16.0151 39.7217 20.0904 44.2237 26.5918 46.8917C26.7637 46.9618 26.942 47 27.1203 47C27.2986 47 27.4769 46.9682 27.6489 46.8981C32.3801 44.9496 35.825 42.0396 38.2256 39.3206C37.1622 39.2696 36.067 39.1868 34.9526 39.0786C32.8449 41.1417 30.2469 43.0075 27.1203 44.3574ZM50.8209 26.2668C50.3497 25.8465 49.8085 25.4199 49.1972 24.9996C47.9555 24.1272 46.4463 23.2548 44.7207 22.4143V9.22043C44.7207 8.44357 44.0966 7.81317 43.3325 7.81317C39.2253 7.79407 35.5448 6.69245 32.3864 4.54017C29.9349 2.87183 28.6167 1.10798 28.2665 0.604932C28.0054 0.229237 27.5788 0 27.1203 0C26.6682 0 26.2352 0.22287 25.9742 0.598564C25.6239 1.10161 24.2994 2.86547 21.8479 4.5338C18.6831 6.68609 14.9962 7.7877 10.8954 7.8068C10.1313 7.81317 9.50728 8.44357 9.50728 9.21406V15.1106C8.71768 15.1615 7.97266 15.2315 7.27221 15.3271C5.69939 15.5372 4.36217 15.8556 3.2733 16.2758C1.42666 16.9954 0.35052 18.0015 0.070341 19.2687C-0.197102 20.4785 0.299578 21.7775 1.53491 23.1402L1.54128 23.1466C1.56675 23.1721 1.58585 23.1975 1.61132 23.223C2.76388 24.4583 4.50863 25.7191 6.801 26.9736C6.95383 27.0564 7.11302 27.1455 7.27221 27.2283C8.12548 27.6804 9.04243 28.1261 10.004 28.5528C10.2841 29.6098 10.6789 30.7114 11.1692 31.8258C12.3027 32.3161 13.4998 32.7873 14.7543 33.2394C14.0793 32.0677 13.5317 30.9152 13.1114 29.8327C16.6327 31.1763 20.6189 32.3607 24.8152 33.2903C29.5273 34.3346 34.1375 34.9714 38.2574 35.1688C37.6143 36.0921 36.8948 37.0091 36.0861 37.9006C37.1749 37.9897 38.2383 38.0534 39.2635 38.0852C39.722 37.5058 40.1295 36.9454 40.4925 36.4169C40.76 36.0284 41.0147 35.6337 41.263 35.2325C42.1481 35.2261 42.995 35.2006 43.8164 35.1433C45.9496 35.0032 47.7581 34.704 49.2035 34.2519C49.5219 34.15 49.8212 34.0481 50.1014 33.9335C50.6554 33.7106 51.1393 33.4559 51.5468 33.1821C51.3367 32.8255 51.0693 32.4816 50.7763 32.1569C50.3561 32.4371 49.8276 32.6854 49.2035 32.9019C47.8217 33.3859 45.9624 33.7233 43.7337 33.8698C43.1797 33.908 42.6066 33.9335 42.0144 33.9462C43.7209 30.8388 44.727 27.6358 44.727 25.1524V23.8343C46.51 24.7385 48.0255 25.6682 49.2035 26.5788C49.4837 26.7953 49.7384 27.0054 49.9804 27.2219C51.0183 28.1452 52.1963 29.5016 51.9289 30.7242C51.8843 30.9152 51.8079 31.0935 51.6997 31.2718C52.0244 31.622 52.2982 31.9722 52.5147 32.3161C52.8458 31.9149 53.0624 31.4755 53.1706 30.998C53.489 29.5334 52.6994 27.9415 50.8209 26.2668ZM7.4123 25.8465C7.36773 25.821 7.31678 25.7956 7.27221 25.7701C5.11356 24.5793 3.47706 23.3695 2.4646 22.2487C2.45823 22.2487 2.45823 22.2551 2.45186 22.2551C2.0507 21.8476 1.78962 21.4018 1.6941 21.2299C1.33751 20.6122 1.19742 20.0455 1.31204 19.5361C1.61769 18.1416 3.79545 17.0973 7.27221 16.607C7.96629 16.5114 8.71131 16.435 9.50728 16.3841V25.1588C9.50728 25.7319 9.56458 26.3495 9.66647 26.9927C8.87687 26.617 8.11912 26.2349 7.4123 25.8465ZM42.1799 25.1588C42.1799 27.1773 41.193 30.5013 39.0725 33.9271C34.8444 33.7807 30.0304 33.1375 25.0954 32.0423C20.5552 31.0362 16.2698 29.7372 12.5765 28.2535C12.2263 27.0564 12.0544 25.993 12.0544 25.1588V10.3284C16.2252 10.1183 19.9949 8.88294 23.287 6.64151C25.0508 5.44438 26.318 4.17721 27.1267 3.2539C27.929 4.17721 29.1962 5.43802 30.9537 6.64151C34.2394 8.88294 38.0091 10.1183 42.1799 10.3284V25.1588Z"
        fill="white" />
    <path
        d="M9.48743 19.2617C6.93398 19.4209 4.839 19.8157 3.27255 20.427C2.66125 20.6626 2.13273 20.9364 1.69336 21.2357C1.88439 21.5668 2.14547 21.9043 2.46385 22.2609C3.8138 21.3694 6.25263 20.7645 9.48743 20.548V19.2617Z"
        fill="white" />
    <path
        d="M1.68814 21.2305C1.78365 21.4024 2.0511 21.8481 2.44589 22.2557C2.45226 22.2557 2.45226 22.2493 2.45863 22.2493C2.14661 21.8991 1.88554 21.5616 1.68814 21.2305C1.6945 21.2305 1.6945 21.2305 1.68814 21.2305ZM52.5088 32.3166C52.2859 31.9728 52.0121 31.6226 51.6937 31.2723C51.4326 30.9922 51.1461 30.7056 50.8213 30.4191C49.3695 29.1264 47.249 27.7956 44.6446 26.5284C44.6192 26.7003 44.5046 27.4644 44.4281 27.8465C46.7715 29.0118 48.669 30.2153 49.9744 31.3742C50.2419 31.6098 50.5157 31.8773 50.7704 32.1574C51.0633 32.4758 51.3307 32.8261 51.5409 33.1826C51.8656 33.7366 52.0439 34.3225 51.9229 34.8765C51.5536 36.5384 48.4907 37.7164 43.7341 38.0285C42.3459 38.1176 40.8431 38.1367 39.2639 38.0858C38.2387 38.0539 37.1753 37.9903 36.0865 37.9011C32.6352 37.6146 28.9037 37.0415 25.0958 36.1946C21.4216 35.3795 17.9194 34.3734 14.761 33.2336C13.5066 32.7815 12.3095 32.3103 11.176 31.82C9.82606 31.2341 8.56525 30.6228 7.41907 29.9988C3.23549 27.7128 0.955851 25.3504 1.31881 23.6884C1.36338 23.4974 1.4398 23.3127 1.54805 23.1408L1.54168 23.1344C1.48437 23.0771 1.12141 22.7078 0.726614 22.0965C0.395493 22.4976 0.178992 22.937 0.0707408 23.4146C-0.20307 24.6499 0.319081 25.9808 1.61809 27.3689C2.77065 28.6043 4.5154 29.8651 6.80777 31.1195C8.36149 31.9664 10.1126 32.7878 12.0165 33.552C13.2328 34.0423 14.5127 34.5135 15.8499 34.9656C18.6517 35.908 21.6764 36.7486 24.822 37.4426C28.3115 38.2131 31.7437 38.7671 34.9594 39.0791C36.0801 39.1874 37.1753 39.2702 38.2324 39.3211C39.1684 39.3657 40.0726 39.3912 40.9514 39.3912C41.9447 39.3912 42.9063 39.3593 43.8168 39.302C46.4212 39.1301 48.5353 38.7225 50.1018 38.0921C51.8656 37.379 52.8972 36.392 53.171 35.1566C53.3684 34.2524 53.1455 33.3036 52.5088 32.3166Z"
        fill="white" />
    <path
        d="M1.54209 23.1397C1.54209 23.1397 1.53516 23.1397 1.53516 23.1328C1.53516 23.1328 1.54209 23.1328 1.54209 23.1397Z"
        fill="white" />
    <path
        d="M25.0248 12.6774L25.261 13.8965C24.2634 14.0905 23.3217 14.5047 22.5045 15.1089C21.6873 15.713 21.0152 16.4919 20.5373 17.3888C20.0593 18.2857 19.7876 19.2779 19.7418 20.2932C19.6961 21.3084 19.8774 22.3211 20.2727 23.2573L19.1301 23.7406C18.6627 22.6341 18.4481 21.4373 18.5021 20.2374C18.556 19.0375 18.8771 17.8648 19.4419 16.8047C20.0067 15.7447 20.801 14.8241 21.7669 14.1101C22.7327 13.3961 23.8457 12.9066 25.0248 12.6774ZM21.4072 26.8067L22.2017 25.8511C23.426 26.8722 24.9704 27.4303 26.5647 27.4278C28.2028 27.4278 29.7496 26.849 30.9741 25.8129L31.7768 26.7603C30.3208 27.9954 28.4726 28.672 26.5633 28.6687C24.6795 28.6714 22.8546 28.0124 21.4072 26.8067ZM29.3659 14.3702C29.1434 14.9438 28.7197 15.4167 28.1739 15.7007C27.6281 15.9847 26.9976 16.0602 26.4002 15.9133C25.8028 15.7663 25.2793 15.4069 24.9275 14.9021C24.5757 14.3974 24.4197 13.7818 24.4887 13.1705C24.5576 12.5591 24.8468 11.9937 25.3021 11.58C25.7575 11.1663 26.3478 10.9324 26.963 10.9222C27.5781 10.912 28.176 11.1261 28.6448 11.5244C29.1137 11.9228 29.4214 12.4783 29.5107 13.087C30.8137 13.5986 31.9614 14.4402 32.8412 15.5291C33.7209 16.618 34.3025 17.9169 34.5289 19.2984C34.5562 19.4677 34.5794 19.6916 34.5999 19.97C34.6057 20.0506 34.5949 20.1315 34.568 20.2077C34.5411 20.2839 34.4988 20.3537 34.4437 20.4128C34.3886 20.4718 34.3219 20.5189 34.2478 20.551C34.1736 20.5831 34.0937 20.5996 34.0129 20.5994C33.8484 20.5995 33.69 20.5373 33.5694 20.4254C33.4489 20.3134 33.3752 20.16 33.3631 19.996C33.2557 18.7882 32.8289 17.6307 32.1265 16.6423C31.4241 15.6539 30.4713 14.8702 29.3659 14.3716V14.3702ZM27.0056 14.919C27.2018 14.925 27.3972 14.8915 27.5803 14.8206C27.7633 14.7496 27.9302 14.6426 28.0711 14.506C28.2121 14.3693 28.3241 14.2057 28.4006 14.0249C28.4771 13.8441 28.5165 13.6498 28.5165 13.4535C28.5165 13.2572 28.4771 13.0629 28.4006 12.8821C28.3241 12.7013 28.2121 12.5378 28.0711 12.4011C27.9302 12.2644 27.7633 12.1574 27.5803 12.0865C27.3972 12.0155 27.2018 11.9821 27.0056 11.988C26.6247 11.9997 26.2633 12.1592 25.9979 12.4327C25.7326 12.7063 25.5842 13.0724 25.5842 13.4535C25.5842 13.8346 25.7326 14.2008 25.9979 14.4743C26.2633 14.7479 26.6247 14.9074 27.0056 14.919ZM21.0208 27.4783C20.6834 27.4862 20.3478 27.4265 20.0338 27.3028C19.7198 27.1791 19.4337 26.9938 19.1923 26.758C18.9509 26.5221 18.7591 26.2404 18.6281 25.9293C18.4972 25.6183 18.4297 25.2842 18.4297 24.9467C18.4297 24.6092 18.4972 24.2751 18.6281 23.964C18.7591 23.653 18.9509 23.3712 19.1923 23.1354C19.4337 22.8995 19.7198 22.7143 20.0338 22.5906C20.3478 22.4669 20.6834 22.4072 21.0208 22.415C21.6924 22.415 22.3366 22.6818 22.8115 23.1567C23.2864 23.6316 23.5532 24.2757 23.5532 24.9474C23.5532 25.619 23.2864 26.2631 22.8115 26.738C22.3366 27.2129 21.6924 27.4797 21.0208 27.4797V27.4783ZM21.0208 26.4135C21.2134 26.4135 21.404 26.3756 21.582 26.302C21.7599 26.2283 21.9215 26.1203 22.0577 25.9842C22.1938 25.848 22.3018 25.6864 22.3755 25.5085C22.4492 25.3306 22.4872 25.1399 22.4872 24.9474C22.4872 24.7548 22.4492 24.5641 22.3755 24.3862C22.3018 24.2083 22.1938 24.0467 22.0577 23.9106C21.9215 23.7744 21.7599 23.6664 21.582 23.5928C21.404 23.5191 21.2134 23.4812 21.0208 23.4812C20.632 23.4812 20.2591 23.6357 19.9842 23.9107C19.7093 24.1856 19.5548 24.5585 19.5548 24.9474C19.5548 25.3362 19.7093 25.7091 19.9842 25.984C20.2591 26.259 20.632 26.4135 21.0208 26.4135ZM32.9795 27.4783C32.6421 27.4862 32.3065 27.4265 31.9925 27.3028C31.6785 27.1791 31.3924 26.9938 31.151 26.758C30.9096 26.5221 30.7177 26.2404 30.5868 25.9293C30.4558 25.6183 30.3883 25.2842 30.3883 24.9467C30.3883 24.6092 30.4558 24.2751 30.5868 23.964C30.7177 23.653 30.9096 23.3712 31.151 23.1354C31.3924 22.8995 31.6785 22.7143 31.9925 22.5906C32.3065 22.4669 32.6421 22.4072 32.9795 22.415C33.6511 22.415 34.2952 22.6818 34.7701 23.1567C35.245 23.6316 35.5118 24.2757 35.5118 24.9474C35.5118 25.619 35.245 26.2631 34.7701 26.738C34.2952 27.2129 33.6511 27.4797 32.9795 27.4797V27.4783ZM32.9795 26.4135C33.172 26.4135 33.3627 26.3756 33.5406 26.302C33.7185 26.2283 33.8802 26.1203 34.0163 25.9842C34.1525 25.848 34.2605 25.6864 34.3342 25.5085C34.4079 25.3306 34.4458 25.1399 34.4458 24.9474C34.4458 24.7548 34.4079 24.5641 34.3342 24.3862C34.2605 24.2083 34.1525 24.0467 34.0163 23.9106C33.8802 23.7744 33.7185 23.6664 33.5406 23.5928C33.3627 23.5191 33.172 23.4812 32.9795 23.4812C32.5907 23.4812 32.2178 23.6357 31.9429 23.9107C31.6679 24.1856 31.5135 24.5585 31.5135 24.9474C31.5135 25.3362 31.6679 25.7091 31.9429 25.984C32.2178 26.259 32.5907 26.4135 32.9795 26.4135Z"
        fill="white" />
</svg>