<?xml version="1.0" encoding="utf-8"?>

 <svg width="43" height="43" viewBox="0 0 43 43" fill="none" xmlns="http://www.w3.org/2000/svg">
            <g clip-path="url(#clip0_554_921)">
                <path
                    d="M13.502 0H16.77L18.576 0.258L19.866 0.602L21.242 1.118L22.704 1.892L23.908 2.666L24.854 3.354L25.284 3.784L26.144 4.558L26.746 5.246L27.864 6.708L28.466 7.74L29.154 9.202L29.928 11.524L30.186 12.9L30.358 15.05L30.272 16.77L29.928 18.662L29.498 20.124L28.982 21.414L28.294 22.876L27.692 23.822L28.208 24.424L28.896 25.198L29.412 25.542L30.186 24.94H30.96L32.078 25.886L32.68 26.574L35.346 29.24L35.776 29.67L38.872 32.766L39.302 33.196L42.226 36.12L42.828 37.066L43 37.926V39.646L42.742 40.678L42.14 41.624L41.538 42.226L40.506 42.828L39.646 43H37.926L36.894 42.742L36.034 42.14L32.766 38.872L32.336 38.442L29.154 35.26L28.724 34.83L25.542 31.648L25.112 31.218L24.94 30.96V30.186L25.542 29.498L25.37 29.154L24.854 28.552L24.166 27.95L23.822 27.692L22.532 28.466L20.64 29.326L19.092 29.842L17.372 30.186L16.77 30.272L15.05 30.358L12.9 30.186L11.18 29.842L9.202 29.154L7.396 28.294L6.364 27.606L5.246 26.746L4.042 25.628L3.526 24.94L3.096 24.51L2.322 23.392L1.462 21.93L0.774 20.382L0.344 19.006L0.172 18.232L0 16.77V13.502L0.172 11.954L0.688 10.148L1.204 8.858L1.978 7.396L2.666 6.364L3.526 5.246L4.472 4.128L5.332 3.44L6.708 2.408L8.084 1.548L9.89 0.774L11.61 0.258L12.9 0.086L13.502 0ZM13.76 1.806L12.212 2.064L10.492 2.58L9.03 3.268L8.428 3.526L7.224 4.3L6.364 5.074L5.418 5.934L4.816 6.622L4.214 7.31L3.354 8.686L3.01 9.546L2.58 10.578L2.15 11.868L1.892 13.158L1.806 13.76V16.512L2.064 18.06L2.494 19.436L2.924 20.554L3.268 21.242L3.44 21.672L4.042 22.618L4.902 23.736L6.02 24.94L7.224 25.886L8.084 26.488L10.062 27.52L11.868 28.122L13.158 28.38L14.964 28.552L17.2 28.38L19.006 27.95L20.554 27.348L21.586 26.832L22.618 26.144L23.994 25.112L24.854 24.338L25.972 22.876L27.004 21.328L27.606 19.952L28.036 18.662L28.294 17.716L28.466 16.512L28.552 15.05L28.38 13.158L28.122 11.868L27.52 10.062L26.488 8.084L25.456 6.622L24.338 5.418L23.65 4.816L22.36 3.87L21.586 3.354L20.726 3.01L19.694 2.58L18.318 2.15L17.114 1.892L16.512 1.806H13.76ZM26.316 25.37L25.37 26.316L25.542 26.66L26.918 28.036L27.262 27.864L28.036 27.09L27.864 26.746L26.488 25.37H26.316ZM30.53 27.176L29.326 28.38L28.638 28.982L27.692 30.014L27.176 30.616L28.38 31.82L28.896 32.422L29.412 32.766L31.906 30.272L32.594 29.67L32.766 29.326L31.992 28.466L31.304 27.864L30.616 27.176H30.53ZM34.056 30.702L30.702 34.056L31.218 34.658L31.992 35.432L32.508 36.034L33.196 36.636L35.518 38.958L36.034 39.56L36.722 40.162L37.582 40.936L38.27 41.194H39.388L40.248 40.764L40.936 39.99L41.194 39.388V38.27L40.678 37.238L39.646 36.206L39.13 35.604L38.442 35.002L36.12 32.68L35.604 32.078L34.916 31.476L34.142 30.702H34.056Z"
                    fill="white" />
                <path
                    d="M13.7595 3.35547H16.5115L17.8875 3.61347L19.2635 3.95747L20.6395 4.55947L21.8435 5.33347L23.0475 6.27947L24.1655 7.39747L24.8535 8.25747L25.8855 10.1495L26.4875 11.6115L26.9175 13.7615V16.5135L26.5735 18.2335L25.9715 19.9535L25.2835 21.2435L24.6815 22.1895L23.9935 23.0495L22.8755 24.1675L21.9295 24.8555L20.6395 25.6295L19.5215 26.1455L18.2315 26.5755L17.1135 26.8335L15.2215 27.0055L13.7595 26.9195L12.2975 26.6615L10.9215 26.2315L9.28752 25.4575L8.16952 24.7695L7.39552 24.1675L6.01952 22.7915L5.15952 21.5875L4.55752 20.6415L3.95552 19.2655L3.61152 17.8895L3.35352 16.4275V13.8475L3.69752 11.9555L4.04152 10.7515L4.72952 9.28947L5.58952 7.99947L6.36352 7.13947L7.73952 5.76347L8.59952 5.16147L9.97552 4.38747L11.4375 3.78547L13.1575 3.44147L13.7595 3.35547ZM13.9315 5.16147L12.2975 5.50547L10.9215 6.02147L10.1475 6.45147L9.54552 6.88147L8.94352 7.22547L8.08352 7.99947L7.39552 8.68747L6.96552 9.28947L6.70752 9.71947L6.10552 10.7515L5.50352 12.2995L5.15952 14.0195V16.2555L5.50352 17.9755L6.27752 19.7815L6.87952 20.7275L7.22352 21.3295L7.65352 21.7595L8.77152 22.8775L10.0615 23.7375L10.9215 24.2535L12.2975 24.7695L13.3295 25.0275L15.1355 25.1995L16.9415 25.0275L18.1455 24.6835L19.4355 24.1675L20.6395 23.4795L21.6715 22.7055L22.5315 21.7595L22.9615 21.3295L23.7355 20.2115L24.4235 18.8355L24.8535 17.6315L25.1115 16.2555V14.0195L24.7675 12.2995L24.2515 10.9235L23.3055 9.37547L22.5315 8.42947L21.7575 7.65547L21.3275 7.22547L20.2095 6.53747L18.8335 5.84947L17.6295 5.41947L16.2535 5.16147H13.9315Z"
                    fill="white" />
                <path
                    d="M14.0187 6.70703H15.4807L15.9967 7.13703V7.99703L15.5667 8.42703L13.7607 8.68503L12.6427 9.02903L11.6107 9.54503L10.7507 10.233L10.3207 10.663L9.71873 11.351L9.03073 12.641L8.68673 13.329L8.34273 13.587H7.56873L7.13873 13.157L7.05273 12.641L7.39673 11.437L8.17073 10.147L9.20273 8.94303L10.4067 7.99703L11.3527 7.39503L13.4167 6.79303L14.0187 6.70703Z"
                    fill="white" />
                <path
                    d="M7.48103 15.0508L8.08303 15.1368L8.51303 15.6528V16.4268L8.08303 16.8568L7.91103 16.9428H7.30903L6.79303 16.5128L6.70703 15.8248L6.96503 15.3088L7.48103 15.0508Z"
                    fill="white" />
            </g>
            <defs>
                <clipPath id="clip0_554_921">
                    <rect width="43" height="43" fill="white" />
                </clipPath>
            </defs>
        </svg>